<svg width="56" height="56" viewBox="0 0 56 56" fill="none" xmlns="http://www.w3.org/2000/svg">
<circle cx="28.5" cy="21.5" r="14.5" fill="#145049"/>
<path fill-rule="evenodd" clip-rule="evenodd" d="M15 21.5C15 14.0442 21.0442 8 28.5 8C35.9558 8 42 14.0442 42 21.5C42 28.9558 35.9558 35 28.5 35C21.0442 35 15 28.9558 15 21.5ZM28.5 2C17.7304 2 9 10.7304 9 21.5C9 30.9348 15.7005 38.8046 24.6024 40.6104L27.5256 53.2776C27.7641 54.3112 29.2359 54.3112 29.4744 53.2776L32.3976 40.6104C41.2995 38.8046 48 30.9348 48 21.5C48 10.7304 39.2696 2 28.5 2Z" fill="#145049"/>
<circle cx="28.5" cy="21.5" r="16" stroke="#C79E74"/>
</svg>
