<svg width="80" height="96" viewBox="0 0 80 96" fill="none" xmlns="http://www.w3.org/2000/svg"><path d="M79.991 39H67.9444c-.7807-.0041-1.5325-.2825-2.112-.782-.5795-.4995-.9461-1.1852-1.0299-1.9263-.7139-5.8021-3.6339-11.1521-8.206-15.0345-4.572-3.8825-10.4778-6.0273-16.5965-6.0273-6.1187 0-12.0245 2.1448-16.5965 6.0273-4.5721 3.8824-7.4921 9.2324-8.206 15.0345-.0838.7411-.4504 1.4268-1.0299 1.9263-.5795.4995-1.3312.7779-2.1119.782H.008977c-.11279-5.0823.838225-10.1349 2.797293-14.8616 1.95906-4.7268 4.88676-9.0326 8.61143-12.665 3.7247-3.63233 8.1714-6.51821 13.0794-8.48838C29.4052 1.01484 34.6758 0 40 0c5.3242 0 10.5948 1.01484 15.5029 2.98502 4.908 1.97017 9.3547 4.85605 13.0794 8.48838 3.7247 3.6324 6.6524 7.9382 8.6114 12.665C79.1528 28.8651 80.1038 33.9177 79.991 39z" fill="#145049"/><path d="M40 48c7.1797 0 13-5.3726 13-12s-5.8203-12-13-12-13 5.3726-13 12 5.8203 12 13 12z" fill="#C79E74"/><path d="M80 49.5227c.0016.4331-.0527.8647-.1617 1.2854 0 0-.1795.5581-.2693.778-4.0763 10.7394-24.4938 32.3368-34.3344 42.2814-.6716.6733-1.4826 1.2098-2.3829 1.5765-.9002.3668-1.8707.556-2.8516.556-.9809 0-1.9514-.1892-2.8516-.556-.9003-.3667-1.7113-.9032-2.383-1.5765-9.8406-9.9446-30.258-31.542-34.334306-42.2814 0-.2199-.26936-.778-.26936-.778-.108964-.4207-.163233-.8523-.161615-1.2854-.003657-.3698.03853-.7387.125701-1.0993.265631-1.2416.97971-2.3581 2.02079-3.1598 1.04108-.8017 2.34487-1.239 3.68963-1.2375.2741-.0348.55193-.0348.82604 0 .56514.1233 1.12266.2757 1.67002.4567l24.1885 6.765c.2672.0716.5096.2082.7029.3962.1932.1879.3305.4205.3979.6744.0673.2538.0625.5199-.0141.7714-.0766.2515-.2223.4795-.4223.6611l-2.5499 2.3846c-.8883.84-1.387 1.9772-1.387 3.1627s.4987 2.3227 1.387 3.1626l7.3086 6.8835c.5445.5175 1.2745.8251 2.0471.8625.7726-.0374 1.5026-.345 2.0471-.8625l7.3087-6.8835c.8882-.8399 1.3869-1.9771 1.3869-3.1626 0-1.1855-.4987-2.3227-1.3869-3.1627l-2.5141-2.3846c-.1956-.1809-.338-.4065-.4131-.6549-.0751-.2483-.0802-.5107-.015-.7615.0652-.2508.1985-.4813.387-.6689.1884-.1875.4253-.3257.6876-.4009l24.1885-6.765c.5473-.181 1.1049-.3334 1.67-.4567.2741-.0348.5519-.0348.826 0 1.3461.001 2.6507.4388 3.6941 1.2398 1.0434.8009 1.7618 1.916 2.0343 3.1575.0712.3569.1073.7193.1078 1.0824z" fill="#145049"/></svg>