<svg width="108" height="28" viewBox="0 0 108 28" fill="none" xmlns="http://www.w3.org/2000/svg">
<g clip-path="url(#clip0_267_240)">
<path d="M22.9787 11.132H19.5216C19.2976 11.1308 19.0818 11.0497 18.9155 10.9041C18.7492 10.7585 18.644 10.5586 18.62 10.3426C18.4151 8.65138 17.5771 7.09196 16.2651 5.96028C14.953 4.82861 13.2582 4.20345 11.5023 4.20345C9.74632 4.20345 8.0515 4.82861 6.73943 5.96028C5.42737 7.09196 4.58938 8.65138 4.38451 10.3426C4.36047 10.5586 4.25526 10.7585 4.08897 10.9041C3.92267 11.0497 3.70693 11.1308 3.48288 11.132H0.0257696C-0.00659852 9.65064 0.26632 8.17788 0.828526 6.80011C1.39073 5.42233 2.23091 4.16727 3.29981 3.10849C4.3687 2.04971 5.6448 1.20852 7.0533 0.634245C8.46179 0.0599689 9.97434 -0.23584 11.5023 -0.23584C13.0302 -0.23584 14.5427 0.0599689 15.9512 0.634245C17.3597 1.20852 18.6358 2.04971 19.7047 3.10849C20.7736 4.16727 21.6138 5.42233 22.176 6.80011C22.7382 8.17788 23.0111 9.65064 22.9787 11.132Z" fill="#145049"/>
<path d="M11.4533 13.8701C13.4366 13.8701 15.0444 12.3109 15.0444 10.3875C15.0444 8.4642 13.4366 6.90503 11.4533 6.90503C9.47002 6.90503 7.86224 8.4642 7.86224 10.3875C7.86224 12.3109 9.47002 13.8701 11.4533 13.8701Z" fill="#C79E74"/>
<path d="M22.953 14.2397C22.9534 14.3676 22.9379 14.4952 22.9066 14.6194C22.9066 14.6194 22.8551 14.7843 22.8293 14.8493C21.6598 18.022 15.8017 24.4025 12.9783 27.3404C12.7856 27.5392 12.5529 27.6977 12.2947 27.8061C12.0364 27.9144 11.7579 27.9703 11.4765 27.9703C11.1951 27.9703 10.9166 27.9144 10.6583 27.8061C10.4 27.6977 10.1673 27.5392 9.97462 27.3404C7.15123 24.4025 1.2932 18.022 0.123654 14.8493C0.123654 14.7843 0.0463714 14.6194 0.0463714 14.6194C0.0151082 14.4952 -0.000462515 14.3676 1.73812e-06 14.2397C-0.00104735 14.1305 0.0110563 14.0215 0.036067 13.9149C0.11228 13.5482 0.317158 13.2183 0.615857 12.9814C0.914556 12.7446 1.28863 12.6154 1.67446 12.6159C1.7531 12.6056 1.83282 12.6056 1.91146 12.6159C2.07361 12.6523 2.23357 12.6973 2.39061 12.7508L9.3306 14.7493C9.40726 14.7705 9.47682 14.8109 9.53227 14.8664C9.58772 14.9219 9.62709 14.9906 9.64642 15.0656C9.66576 15.1406 9.66436 15.2192 9.64238 15.2935C9.6204 15.3678 9.57861 15.4352 9.52123 15.4888L8.78962 16.1933C8.53478 16.4415 8.3917 16.7774 8.3917 17.1276C8.3917 17.4779 8.53478 17.8138 8.78962 18.062L10.8866 20.0955C11.0428 20.2484 11.2522 20.3393 11.4739 20.3503C11.6956 20.3393 11.905 20.2484 12.0613 20.0955L14.1582 18.062C14.413 17.8138 14.5561 17.4779 14.5561 17.1276C14.5561 16.7774 14.413 16.4415 14.1582 16.1933L13.4369 15.4888C13.3807 15.4354 13.3399 15.3687 13.3184 15.2954C13.2968 15.222 13.2953 15.1445 13.314 15.0704C13.3327 14.9963 13.371 14.9282 13.4251 14.8728C13.4791 14.8174 13.5471 14.7766 13.6224 14.7543L20.5624 12.7558C20.7194 12.7023 20.8794 12.6573 21.0415 12.6209C21.1201 12.6106 21.1999 12.6106 21.2785 12.6209C21.6647 12.6212 22.039 12.7505 22.3384 12.9871C22.6377 13.2237 22.8439 13.5532 22.9221 13.9199C22.9425 14.0254 22.9528 14.1324 22.953 14.2397Z" fill="#145049"/>
<path d="M107.397 24.3077C107.403 24.3341 107.403 24.3612 107.397 24.3876V24.4376C107.155 25.0921 105.939 26.4361 105.336 27.0307C105.296 27.072 105.248 27.1049 105.194 27.1274C105.141 27.1499 105.083 27.1615 105.025 27.1615C104.966 27.1615 104.908 27.1499 104.855 27.1274C104.801 27.1049 104.753 27.072 104.713 27.0307C104.126 26.4162 102.91 25.0921 102.652 24.4376V24.3876C102.649 24.361 102.649 24.3342 102.652 24.3077C102.65 24.2861 102.65 24.2643 102.652 24.2427C102.668 24.1664 102.71 24.0978 102.772 24.0486C102.834 23.9993 102.912 23.9726 102.992 23.9729H103.044L103.142 24.0029L104.579 24.4226C104.595 24.4268 104.609 24.4348 104.62 24.446C104.632 24.4571 104.64 24.4709 104.644 24.4861C104.648 24.5012 104.648 24.5172 104.644 24.5323C104.64 24.5475 104.632 24.5613 104.62 24.5725L104.466 24.7174C104.413 24.7696 104.384 24.8395 104.384 24.9122C104.384 24.985 104.413 25.0549 104.466 25.1071L104.904 25.5268C104.935 25.5585 104.977 25.5781 105.022 25.5818C105.069 25.5784 105.113 25.5589 105.146 25.5268L105.579 25.1071C105.606 25.0819 105.627 25.0517 105.642 25.0182C105.657 24.9847 105.664 24.9486 105.664 24.9122C105.664 24.8758 105.657 24.8398 105.642 24.8063C105.627 24.7728 105.606 24.7426 105.579 24.7174L105.429 24.5725C105.418 24.5613 105.41 24.5475 105.405 24.5323C105.401 24.5172 105.401 24.5012 105.405 24.4861C105.41 24.4709 105.418 24.4571 105.429 24.446C105.441 24.4348 105.455 24.4268 105.47 24.4226L106.908 24.0029L107.006 23.9729H107.057C107.137 23.9735 107.214 24.0006 107.276 24.0497C107.338 24.0988 107.381 24.1669 107.397 24.2427C107.4 24.2643 107.4 24.2861 107.397 24.3077Z" fill="#C79E74"/>
<path d="M98.3551 10.6574C98.3604 10.6956 98.3604 10.7342 98.3551 10.7724V10.8423C98.082 11.8116 96.7116 13.7602 96.0521 14.6646C96.0161 14.7236 95.9648 14.7725 95.9034 14.8065C95.842 14.8405 95.7725 14.8584 95.7017 14.8584C95.631 14.8584 95.5615 14.8405 95.5001 14.8065C95.4386 14.7725 95.3874 14.7236 95.3514 14.6646C94.6919 13.7602 93.3214 11.8116 93.0484 10.8423V10.7724C93.0456 10.7341 93.0456 10.6957 93.0484 10.6574C93.0456 10.6242 93.0456 10.5908 93.0484 10.5575C93.0537 10.4587 93.0949 10.3649 93.1647 10.2927C93.2345 10.2204 93.3283 10.1744 93.4296 10.1628C93.4484 10.1603 93.4675 10.1603 93.4863 10.1628L93.5996 10.2078L95.2174 10.8223C95.2364 10.8329 95.2528 10.8473 95.2656 10.8645C95.2784 10.8817 95.2872 10.9013 95.2916 10.9221C95.296 10.9429 95.2958 10.9643 95.291 10.985C95.2862 11.0057 95.2769 11.0252 95.2638 11.0422L95.0938 11.262C95.0339 11.3456 95.0019 11.445 95.0019 11.5468C95.0019 11.6486 95.0339 11.748 95.0938 11.8316L95.609 12.4512C95.6247 12.4736 95.6453 12.4923 95.6694 12.5061C95.6934 12.52 95.7203 12.5285 95.7481 12.5311C95.7757 12.5278 95.8024 12.5191 95.8263 12.5053C95.8503 12.4915 95.871 12.4731 95.8872 12.4512L96.3767 11.8316C96.4365 11.748 96.4686 11.6486 96.4686 11.5468C96.4686 11.445 96.4365 11.3456 96.3767 11.262L96.2066 11.0422C96.1933 11.0255 96.1837 11.0063 96.1785 10.9858C96.1733 10.9654 96.1727 10.944 96.1766 10.9233C96.1805 10.9026 96.1888 10.8828 96.2011 10.8654C96.2134 10.848 96.2293 10.8333 96.2479 10.8223L97.8708 10.2078L97.9841 10.1628C98.0012 10.1603 98.0186 10.1603 98.0357 10.1628C98.1379 10.1733 98.233 10.2188 98.3038 10.2912C98.3746 10.3635 98.4165 10.4579 98.4221 10.5575C98.403 10.5928 98.3806 10.6262 98.3551 10.6574Z" fill="#232D23"/>
<path d="M35.921 23.7781C35.9238 23.8047 35.9238 23.8315 35.921 23.8581V23.908C35.6789 24.5626 34.463 25.9066 33.8601 26.5012C33.8206 26.5423 33.7728 26.5752 33.7196 26.5976C33.6664 26.62 33.609 26.6316 33.551 26.6316C33.493 26.6316 33.4356 26.62 33.3825 26.5976C33.3293 26.5752 33.2814 26.5423 33.2419 26.5012C32.6545 25.8866 31.4386 24.5626 31.181 23.908V23.8581C31.1782 23.8315 31.1782 23.8047 31.181 23.7781C31.1785 23.7565 31.1785 23.7348 31.181 23.7132C31.1966 23.6369 31.239 23.5683 31.3011 23.519C31.3631 23.4698 31.4409 23.443 31.5211 23.4434H31.5674H31.6653L33.1079 23.8631C33.1231 23.8679 33.1368 23.8764 33.1475 23.8878C33.1583 23.8992 33.1659 23.9131 33.1695 23.9281C33.1732 23.9432 33.1727 23.9589 33.1682 23.9738C33.1638 23.9887 33.1554 24.0021 33.144 24.013L32.9946 24.1579C32.9423 24.2101 32.9131 24.28 32.9131 24.3527C32.9131 24.4255 32.9423 24.4954 32.9946 24.5476L33.4274 24.9673C33.4605 24.9993 33.5044 25.0188 33.551 25.0222C33.5977 25.0188 33.6416 24.9993 33.6747 24.9673L34.1075 24.5476C34.1346 24.5224 34.1562 24.4921 34.1709 24.4587C34.1856 24.4252 34.1932 24.3891 34.1932 24.3527C34.1932 24.3163 34.1856 24.2803 34.1709 24.2468C34.1562 24.2133 34.1346 24.183 34.1075 24.1579L33.958 24.013C33.9467 24.0018 33.9385 23.988 33.9344 23.9728C33.9302 23.9577 33.9302 23.9417 33.9344 23.9266C33.9386 23.9114 33.9467 23.8976 33.9581 23.8864C33.9695 23.8753 33.9837 23.8672 33.9993 23.8631L35.4264 23.4833H35.5243H35.5501C35.6306 23.4837 35.7086 23.5106 35.7713 23.5597C35.8341 23.6087 35.8778 23.6769 35.8953 23.7531C35.8953 23.7531 35.921 23.7581 35.921 23.7781Z" fill="#C79E74"/>
<path d="M34.6433 4.07697C34.6433 4.69153 34.5866 5.49096 34.5557 6.23543H35.3233C35.4617 6.23818 35.5983 6.20486 35.7188 6.13894C35.8393 6.07303 35.9394 5.97693 36.0086 5.8607L37.039 6.20045C37.7758 6.44028 37.3172 6.91494 37.3172 7.16976C37.3393 8.59026 37.2653 10.0106 37.0957 11.4217C36.8535 13.3753 36.4826 14.6644 35.6067 15.0541C35.4768 15.134 35.3243 15.1722 35.1708 15.1633C35.0172 15.1543 34.8705 15.0986 34.7515 15.0042C34.365 14.6857 33.9413 14.4124 33.4892 14.1897C33.314 14.1198 33.2573 13.9199 33.5768 13.9349C35.2409 14.0199 35.2564 14.0199 35.6376 12.0463C35.8707 10.4086 35.9946 8.75799 36.0086 7.10481H34.5196C34.4835 7.52951 34.4681 7.90424 34.432 8.15906C34.0044 11.3868 33.2573 14.2247 31.4695 15.4888C31.3098 15.6087 31.0831 15.4888 31.1861 15.284C32.0672 13.7551 32.6803 12.1412 33.0821 8.33393C33.1697 7.56948 33.2367 5.41102 33.2728 4.10195H32.0105C31.6962 4.10195 31.5932 3.93207 31.3098 3.21759H34.973C34.8553 3.14083 34.7546 3.04208 34.6768 2.92712C34.5989 2.81216 34.5455 2.68329 34.5196 2.54806C34.2568 1.76862 33.9374 0.899241 33.8189 0.609448C33.7468 0.43957 33.8704 0.254702 34.0971 0.389605C34.7482 0.759967 35.3006 1.27338 35.7098 1.88853C35.8517 2.09914 35.9037 2.35504 35.8547 2.60213C35.8056 2.84922 35.6594 3.06813 35.447 3.21259H37.0236C37.3379 3.21259 37.5388 3.04271 37.8119 2.71295C38.2343 3.07269 38.5125 3.29253 38.5125 3.51237C38.5125 3.9021 38.1622 4.10695 37.5645 4.10695L34.6433 4.07697ZM43.0156 9.87283L43.1753 10.1776C44.0379 11.8681 45.3283 13.319 46.9261 14.3946C47.1167 14.5295 47.0652 14.5995 46.9621 14.6494C45.8029 15.209 45.8029 15.259 45.4165 14.9192C44.2043 13.8328 43.2118 12.5365 42.49 11.097C41.8502 9.67907 41.4217 8.18011 41.2174 6.64514C40.9701 6.6951 40.7022 6.74507 40.4446 6.78004V13.3054C41.1659 13.0156 41.7945 12.7258 42.5467 12.406C42.8455 12.2711 42.9331 12.5559 42.7786 12.6758C41.8151 13.3753 40.2694 14.4096 39.172 15.0891C38.6568 15.4139 38.6104 15.3639 37.5955 14.3596C38.157 14.1748 38.662 13.9849 39.0999 13.86V5.94564L40.187 6.18547C40.2354 6.19085 40.2822 6.20555 40.3247 6.22872C40.3672 6.25188 40.4044 6.28304 40.4343 6.32037C41.7971 5.84101 43.0974 5.20884 44.3088 4.43671L44.9579 5.08125C45.2207 5.33607 45.1692 5.45599 44.9579 5.54093C43.9848 5.92777 42.9845 6.24669 41.9645 6.49524C42.1514 7.48759 42.4325 8.46104 42.8043 9.40317L43.0156 9.87283ZM37.9716 6.1355C39.014 4.27206 39.7971 2.2828 40.3004 0.219727L41.2174 0.679398C41.6193 0.884252 41.6348 0.899241 41.4802 1.25898C41.2844 1.69867 40.965 2.31323 40.6352 2.99275H44.8755C45.1743 2.99275 45.3907 2.83786 45.6792 2.4931C46.1017 2.85285 46.3696 3.04271 46.3696 3.27754C46.3696 3.65227 46.0399 3.87212 45.4422 3.87212H40.1252C39.6213 4.77536 38.9901 5.6061 38.2498 6.34035C38.0385 6.52522 37.8118 6.39032 37.9716 6.1355Z" fill="#232D23"/>
<path d="M55.8445 6.3055V14.6146C55.8445 15.429 55.1232 15.6688 54.407 15.5339V7.88437C53.66 8.65025 52.8387 9.34462 51.9546 9.95789C51.7794 10.0778 51.5527 9.87295 51.7279 9.66809C53.5557 7.71701 55.1271 5.55371 56.406 3.22769L57.1583 3.78729C57.4571 4.01213 57.5601 4.09707 57.3695 4.36688C56.9985 4.87652 56.473 5.57602 55.8445 6.3055ZM51.8464 4.58672C53.3022 3.19567 54.6011 1.65807 55.7208 0L56.406 0.579586C56.7564 0.884368 56.8234 1.00428 56.5967 1.22413C55.2347 2.6159 53.7036 3.84232 52.037 4.87652C51.867 4.99643 51.6403 4.77659 51.8464 4.58672ZM67.3029 6.17059C67.3029 6.5753 66.9165 6.78016 66.2725 6.78016H63.9901V14.4897C63.9901 15.389 63.1348 15.9186 62.5011 15.374C61.9394 14.958 61.3134 14.6309 60.6463 14.4047C60.4196 14.3198 60.4505 14.1349 60.6824 14.1349C61.1203 14.1349 62.362 14.1999 62.4496 14.1349C62.4817 14.1163 62.5073 14.0886 62.5229 14.0556C62.5385 14.0226 62.5435 13.9858 62.5371 13.95V6.78016H57.4725C57.1583 6.78016 57.0861 6.56031 56.7358 5.83084H65.7263C66.0406 5.83084 66.2416 5.66096 66.5661 5.30121C66.9783 5.66096 67.2875 5.84582 67.2875 6.17059H67.3029ZM57.9311 1.59886H64.2219C64.5207 1.59886 64.7371 1.42898 65.0617 1.09921C65.4121 1.45396 65.747 1.64383 65.747 1.92862C65.747 2.30335 65.4121 2.54318 64.7629 2.54318H58.6988C58.4051 2.53319 58.2969 2.31335 57.9311 1.59886Z" fill="#232D23"/>
<path d="M72.316 5.03151C73.4332 3.51678 74.3733 1.88625 75.1188 0.169985L76.0513 0.714596C76.345 0.884474 76.3296 0.934439 76.1389 1.25921C76.0668 1.37412 75.9792 1.51402 75.871 1.66392H78.7305C79.0293 1.66392 79.1684 1.56399 79.4672 1.25921C79.833 1.59896 80.0597 1.79882 80.0597 2.02366C80.0597 2.32844 79.7815 2.5233 79.2045 2.5233H76.6799C77.0937 2.71479 77.4488 3.00754 77.7103 3.3727C78.1843 4.22709 77.0818 5.09147 76.5202 3.96727C76.2729 3.46763 76.0462 2.91802 75.871 2.5233H75.2218C74.4407 3.52349 73.5588 4.44572 72.5891 5.27634C72.5556 5.31145 72.5091 5.33223 72.4598 5.33411C72.4106 5.33598 72.3625 5.3188 72.3263 5.28633C72.2901 5.25386 72.2687 5.20878 72.2667 5.16099C72.2648 5.1132 72.2825 5.06663 72.316 5.03151ZM87.3346 12.6261C87.3346 13.0008 86.9843 13.1557 86.4072 13.1557H80.374V14.6546C80.374 15.4191 79.6888 15.6939 78.916 15.589V13.1557H73.0528C72.8055 13.1557 72.7179 13.0008 72.4397 12.3013H78.9211V11.302H74.6139C74.3666 11.302 74.2944 11.1172 73.9802 10.4526H78.9211V9.32844H75.3146C75.0673 9.32844 74.9951 9.1086 74.7324 8.49904H78.9211V7.49475H72.9446C72.6818 7.49475 72.6148 7.32487 72.3006 6.66035H78.9211V5.66106H75.3816C75.1394 5.66106 75.0518 5.44122 74.82 4.82666H78.9417V3.24779L79.8537 3.43265C80.578 2.40353 81.1778 1.29705 81.6415 0.13501L82.5895 0.69461C82.8522 0.849499 82.8883 0.934439 82.677 1.22423C82.5895 1.34415 82.4658 1.49404 82.3061 1.6839H85.7787C86.0775 1.6839 86.2166 1.549 86.5309 1.25921C86.8812 1.57898 87.144 1.81881 87.144 2.03865C87.144 2.36342 86.7936 2.53829 86.2527 2.53829H83.6766C84.037 2.6971 84.3493 2.94315 84.5834 3.25278C85.1965 4.11717 84.0681 5.03651 83.4447 3.87734C83.182 3.37769 82.9913 2.92801 82.7801 2.53829H81.5384C81.1881 2.89304 80.8017 3.28276 80.3792 3.6425C80.3889 3.67515 80.3889 3.70979 80.3792 3.74243V4.84165H82.3061C82.4503 4.84381 82.5931 4.81385 82.7235 4.75409C82.8539 4.69432 82.9685 4.60633 83.0583 4.49689L84.2124 4.85164C84.8976 5.05649 84.4597 5.38126 84.4597 5.72102V6.67034H85.7735C86.1084 6.67034 86.2887 6.48547 86.5979 6.1707C86.9637 6.51046 87.2264 6.71031 87.2264 6.96513C87.2264 7.32487 86.8967 7.49475 86.3351 7.49475H84.4597V9.07362C84.4597 9.71816 83.6869 9.87305 83.0583 9.83808V9.33844H80.374V10.4926H83.8775C84.1403 10.4926 84.3309 10.3227 84.6297 9.99297C85.0007 10.3377 85.2789 10.5576 85.2789 10.7774C85.2789 11.1521 84.9285 11.337 84.367 11.337H80.374V12.3363H85.8765C86.1908 12.3363 86.366 12.1664 86.6957 11.8367C87.0719 12.1664 87.3346 12.3563 87.3346 12.6261ZM80.374 6.66035H83.0532V5.66106H80.374V6.66035ZM80.374 8.49404H83.0532V7.49475H80.374V8.49404Z" fill="#232D23"/>
<path d="M99.0764 3.61741C99.0764 4.02712 98.757 4.21699 98.1645 4.21699H92.9247C92.6414 4.21699 92.5744 4.02712 92.291 3.31263H97.5668C97.9172 3.31263 98.0821 3.16274 98.4273 2.81299C98.8652 3.17773 99.0764 3.41756 99.0764 3.61741Z" fill="#232D23"/>
<path d="M98.4427 6.06562C98.4427 6.47533 98.113 6.62522 97.5514 6.62522H93.5533C93.239 6.62522 93.239 6.45534 92.9247 5.74085H97.0053C97.3402 5.74085 97.5205 5.60595 97.7935 5.24121C98.2315 5.64093 98.4427 5.82579 98.4427 6.06562Z" fill="#232D23"/>
<path d="M92.9608 8.16411H96.9692C97.2887 8.16411 97.4844 8.00922 97.742 7.68945C98.18 8.0442 98.3912 8.23406 98.3912 8.4689C98.3912 8.82864 98.0409 9.0285 97.4793 9.0285H93.5894C93.2906 9.0285 93.2906 8.84363 92.9608 8.16411Z" fill="#232D23"/>
<path d="M94.4652 0.499625C94.3622 0.309761 94.5167 0.159868 94.7125 0.244807C95.413 0.509078 96.0122 0.976745 96.4282 1.58385C97.0568 2.68806 95.913 3.77728 95.3256 2.38328C95.0793 1.73872 94.792 1.10963 94.4652 0.499625Z" fill="#232D23"/>
<path d="M107.681 14.7144C107.011 15.0741 105.455 15.1741 103.559 15.1391C99.9523 15.0741 99.8595 14.8693 99.8595 11.7915V6.17049L100.962 6.40532C101.173 6.45529 101.261 6.54023 101.261 6.64515H104.821V2.3782H99.6998C99.3855 2.3782 99.2979 2.19333 98.9836 1.47884H104.012C104.193 1.47917 104.37 1.42951 104.522 1.33569C104.674 1.24186 104.796 1.10779 104.873 0.949219L106.083 1.37392C106.784 1.63373 106.238 2.15836 106.238 2.5131V7.67941C106.238 8.37891 105.465 8.54879 104.821 8.41389V7.56449H101.261V12.3211C101.261 13.6951 101.312 13.865 102.647 13.9349C104.522 14.0349 105.589 13.9349 106.099 13.6951C106.413 13.5602 106.516 13.2704 106.64 12.7458L106.836 11.9314C106.842 11.9019 106.858 11.8754 106.882 11.8563C106.906 11.8372 106.936 11.8268 106.967 11.8268C106.998 11.8268 107.028 11.8372 107.052 11.8563C107.076 11.8754 107.092 11.9019 107.098 11.9314C107.289 12.8157 107.377 13.2754 107.727 13.6302C107.817 13.693 107.89 13.7765 107.938 13.8732C107.987 13.97 108.01 14.0769 108.005 14.1844C108 14.2919 107.968 14.3966 107.912 14.4891C107.855 14.5816 107.776 14.659 107.681 14.7144Z" fill="#232D23"/>
<path d="M41.3875 22.269C41.3875 22.1891 41.439 22.1641 41.5214 22.1691C41.7945 22.194 42.4952 22.219 43.1856 22.219H44.5457C45.3392 22.219 45.9008 22.219 46.1841 22.1691C46.2666 22.1691 46.3387 22.1691 46.3335 22.254C46.2923 22.6637 46.2563 23.1184 46.2253 23.5381C46.2206 23.5565 46.2097 23.5729 46.1943 23.5845C46.1789 23.5962 46.1599 23.6026 46.1403 23.6026C46.1208 23.6026 46.1018 23.5962 46.0864 23.5845C46.071 23.5729 46.06 23.5565 46.0553 23.5381C45.942 22.8985 45.7153 22.5688 45.3083 22.5688H44.2057V26.2512C44.2057 27.5752 44.2057 27.5752 44.9888 27.6402C44.9321 27.835 44.8909 27.9 44.7724 27.9H42.6394C42.6703 27.7351 42.6961 27.6552 42.8043 27.6402C43.371 27.5602 43.3968 27.5502 43.3968 26.426V22.5838H42.2479C41.9181 22.5838 41.6708 22.9385 41.4956 23.5531C41.4544 23.698 41.3256 23.653 41.3256 23.5531C41.3256 23.1334 41.3875 22.6787 41.3875 22.269Z" fill="#145049"/>
<path d="M48.1523 27.6902C48.3945 27.6452 48.4202 27.5902 48.4202 26.7308V24.8472C48.4197 24.8172 48.4127 24.7876 48.3997 24.7603C48.3867 24.7331 48.3679 24.7088 48.3446 24.689C48.3213 24.6693 48.294 24.6545 48.2644 24.6455C48.2348 24.6366 48.2037 24.6338 48.1729 24.6373H48.0441C47.9359 24.6373 47.8947 24.5674 48.0441 24.5174C48.4099 24.3775 48.7809 24.2176 49.0745 24.0877C49.0862 24.0811 49.0996 24.0781 49.113 24.079C49.1264 24.0799 49.1393 24.0847 49.1499 24.0928C49.1604 24.1009 49.1682 24.1119 49.1723 24.1244C49.1763 24.1368 49.1764 24.1502 49.1724 24.1627C49.1724 24.2926 49.1724 24.7373 49.1724 24.9521C49.4146 24.5074 49.6877 24.1377 50.1411 24.1377C50.2759 24.1307 50.4102 24.159 50.5298 24.2196C50.6495 24.2803 50.7501 24.3711 50.8211 24.4825C50.9087 24.6473 50.8572 24.8822 50.4914 25.092C50.4204 24.9947 50.3292 24.9128 50.2236 24.8517C50.118 24.7906 50.0004 24.7516 49.8783 24.7373C49.6052 24.7373 49.4558 24.8472 49.1724 25.147V26.506C49.1724 27.6402 49.1724 27.6702 49.6413 27.6952C49.5795 27.86 49.5743 27.915 49.4661 27.915H48.0132C48.0441 27.7451 48.0544 27.7052 48.1523 27.6902Z" fill="#145049"/>
<path d="M55.4787 27.9799C55.1438 27.9799 54.7934 27.91 54.814 27.4053C54.7025 27.5879 54.5421 27.7377 54.3497 27.8389C54.1574 27.9401 53.9404 27.9888 53.7218 27.9799C53.0932 27.9799 52.6913 27.6701 52.6913 27.0656C52.6913 26.6259 53.2581 25.7465 54.8244 25.7465V25.107C54.8364 25.0191 54.8278 24.9298 54.7993 24.8456C54.7708 24.7614 54.7231 24.6845 54.6597 24.6206C54.5963 24.5568 54.5189 24.5076 54.4333 24.4767C54.3476 24.4459 54.2559 24.4342 54.1649 24.4425C54.0619 24.4382 53.9596 24.4611 53.869 24.5086C53.7783 24.5561 53.7025 24.6264 53.6497 24.7123C53.5208 24.8871 53.5569 25.032 53.5569 25.3268C53.4581 25.4041 53.3333 25.4432 53.2066 25.4367C53.1517 25.4368 53.0976 25.4248 53.0482 25.4015C52.9989 25.3782 52.9557 25.3443 52.9219 25.3024C52.8881 25.2605 52.8647 25.2116 52.8533 25.1596C52.8419 25.1075 52.8429 25.0537 52.8562 25.0021C52.9564 24.7391 53.1414 24.5145 53.3836 24.3615C53.6258 24.2085 53.9124 24.1353 54.2009 24.1527C55.1335 24.1527 55.6229 24.5574 55.6229 25.1519C55.6229 25.5017 55.592 25.8914 55.592 26.5709C55.592 27.5402 55.4993 27.7901 55.9991 27.7001C56.0918 27.7001 56.1021 27.7751 56.0351 27.825C55.8746 27.9394 55.6773 27.9943 55.4787 27.9799ZM54.8192 25.9814C53.7888 25.9814 53.4848 26.531 53.4848 26.9806C53.4848 27.1132 53.5391 27.2402 53.6357 27.3339C53.7323 27.4276 53.8634 27.4803 54 27.4803C54.1533 27.4989 54.3089 27.4818 54.454 27.4306C54.5991 27.3793 54.7296 27.2953 54.8347 27.1855C54.814 26.8407 54.8192 26.416 54.8192 26.0063V25.9814Z" fill="#145049"/>
<path d="M57.6426 24.4176C57.6735 24.2577 57.6941 24.2078 57.8023 24.2078H59.3016C59.2346 24.3776 59.2295 24.4176 59.1419 24.4176C58.7915 24.4176 58.7915 24.4926 58.9358 24.8173L59.8838 27.0507L60.8215 24.8173C60.9709 24.4676 60.8885 24.4176 60.4557 24.4176C60.4866 24.2577 60.5123 24.2078 60.6205 24.2078H61.7025C61.6458 24.3776 61.6046 24.4176 61.5222 24.4176C61.4397 24.4176 61.3212 24.4926 61.2388 24.6874L59.8632 27.8901C59.8116 28.01 59.6777 28.0051 59.4922 27.9951L58.0908 24.7824C57.9672 24.4826 57.9363 24.4276 57.6426 24.4176Z" fill="#145049"/>
<path d="M64.1859 25.9814C64.1859 26.8458 64.6702 27.5303 65.4379 27.5303C65.8198 27.5364 66.1892 27.3985 66.4683 27.1456C66.5507 27.0806 66.6074 27.1456 66.5662 27.2255C66.4312 27.4634 66.2305 27.6601 65.9866 27.7934C65.7426 27.9267 65.4652 27.9913 65.1854 27.98C64.155 27.98 63.3925 27.3254 63.3925 26.0713C63.3925 25.117 64.1756 24.1227 65.0772 24.1227C65.2918 24.1 65.5089 24.1246 65.7124 24.1946C65.9158 24.2647 66.1002 24.3785 66.2519 24.5274C66.5229 24.828 66.6745 25.2124 66.6795 25.6117C66.6795 25.8065 66.6796 25.8865 66.4889 25.8915C65.51 25.9464 64.7578 25.9414 64.1859 25.9814ZM65.8758 25.5767C65.8758 24.9421 65.6027 24.4425 65.103 24.4425C64.6032 24.4425 64.1756 25.0021 64.1756 25.7066L65.8758 25.5767Z" fill="#145049"/>
<path d="M68.8177 22.4839C69.1835 22.339 69.5854 22.2091 69.9151 22.1091C70.0027 22.1091 70.0182 22.1091 70.0079 22.1841C69.9615 22.5538 69.9615 23.713 69.9615 24.4874V26.486C69.9615 27.6202 69.9615 27.6502 70.4355 27.6752C70.384 27.84 70.3685 27.895 70.2603 27.895H68.7147C68.7456 27.7251 68.7559 27.6901 68.8538 27.6752C69.1474 27.6352 69.199 27.5852 69.199 26.7108V22.8986C69.199 22.7387 69.1474 22.5988 68.9414 22.5988H68.8074C68.725 22.5988 68.6889 22.5288 68.8177 22.4839Z" fill="#145049"/>
<path d="M77.8598 22.2192L81.1881 26.3863V23.6982C81.1881 22.614 81.1572 22.504 80.6728 22.4791C80.508 22.4791 80.5028 22.4141 80.544 22.2192H82.2855C82.2288 22.4441 82.2288 22.4641 82.1206 22.4791C81.6518 22.549 81.6054 22.6339 81.6054 23.5233V27.9002C81.6054 28.0251 81.3735 27.9951 81.3323 27.9402L77.6331 23.2385V26.3063C77.6331 27.5105 77.6331 27.5804 78.3131 27.6554C78.2462 27.8502 78.2359 27.9152 78.1277 27.9152H76.5511C76.582 27.7453 76.5923 27.6803 76.7108 27.6554C77.1745 27.5654 77.1951 27.5105 77.1951 26.5611V22.9487C77.1951 22.6239 76.9427 22.519 76.6078 22.4791C76.4841 22.4791 76.4944 22.3791 76.515 22.2192H77.8598Z" fill="#145049"/>
<path d="M84.1145 26.0514C84.1048 25.8024 84.1469 25.554 84.2383 25.321C84.3296 25.088 84.4683 24.8752 84.6462 24.6953C84.824 24.5154 85.0374 24.372 85.2735 24.2736C85.5097 24.1753 85.7638 24.124 86.0208 24.1228C86.2751 24.1219 86.5267 24.1723 86.7597 24.271C86.9927 24.3697 87.202 24.5144 87.3741 24.6958C87.5462 24.8773 87.6774 25.0916 87.7593 25.325C87.8412 25.5584 87.8721 25.8058 87.8499 26.0514C87.8595 26.3001 87.8176 26.5481 87.7266 26.7807C87.6356 27.0134 87.4973 27.2259 87.32 27.4058C87.1427 27.5857 86.93 27.7292 86.6944 27.8278C86.4589 27.9265 86.2053 27.9782 85.9487 27.9801C84.7379 27.9801 84.1145 27.0907 84.1145 26.0514ZM87.041 26.1664C87.041 25.302 86.6236 24.4276 85.9075 24.4276C85.1913 24.4276 84.9131 25.0771 84.9131 25.9265C84.9131 26.7759 85.3201 27.6553 85.9951 27.6553C86.7988 27.6703 87.041 27.1057 87.041 26.1664Z" fill="#145049"/>
<path d="M92.3477 27.6002C92.2214 27.7253 92.0707 27.8246 91.9044 27.8924C91.7381 27.9601 91.5595 27.995 91.379 27.995C90.802 27.995 90.4465 27.7052 90.4465 26.8858V24.6224H89.8179V24.5174C89.8266 24.4888 89.8432 24.4629 89.8659 24.4427C89.8886 24.4224 89.9165 24.4086 89.9467 24.4025C90.6011 24.3126 90.7453 23.788 90.905 23.2484C90.905 23.1884 91.1781 23.2134 91.1781 23.2484V24.1927H92.3477C92.3064 24.4625 92.2807 24.6074 92.0797 24.6074H91.1936V26.6709C91.1936 27.4603 91.4512 27.5853 91.7706 27.5853C91.9481 27.5867 92.1239 27.5509 92.2858 27.4803C92.358 27.4803 92.4146 27.5253 92.3477 27.6002Z" fill="#145049"/>
<path d="M95.0423 25.9815C95.0423 26.8458 95.5266 27.5303 96.2943 27.5303C96.6764 27.5375 97.0462 27.3994 97.3247 27.1456C97.4071 27.0807 97.469 27.1456 97.4277 27.2256C97.2919 27.4627 97.0909 27.6587 96.8472 27.7919C96.6035 27.9251 96.3265 27.9902 96.047 27.98C95.0165 27.98 94.2488 27.3255 94.2488 26.0714C94.2488 25.1171 95.0371 24.1228 95.9388 24.1228C96.1533 24.1011 96.3701 24.1262 96.5733 24.1962C96.7766 24.2663 96.9611 24.3794 97.1135 24.5275C97.3825 24.8288 97.5323 25.2131 97.5359 25.6117C97.5359 25.8066 97.5359 25.8865 97.3453 25.8915C96.3715 25.9465 95.6193 25.9415 95.0423 25.9815ZM96.7373 25.5767C96.7373 24.9422 96.4591 24.4426 95.9594 24.4426C95.4596 24.4426 95.0371 25.0022 95.0371 25.7066L96.7373 25.5767Z" fill="#145049"/>
<path d="M45.0146 8.70391L44.6024 8.74887C44.4456 8.77047 44.2988 8.83653 44.1806 8.93876C44.0623 9.04099 43.9779 9.17483 43.9378 9.32346L43.675 10.4527C43.6638 10.4899 43.6617 10.5291 43.6689 10.5673C43.676 10.6055 43.6923 10.6415 43.7163 10.6725C43.7456 10.699 43.7809 10.7186 43.8193 10.7299C43.8577 10.7412 43.8982 10.7437 43.9378 10.7375L45.1228 10.6175C45.2799 10.595 45.4268 10.5287 45.5457 10.4267C45.6646 10.3247 45.7504 10.1914 45.7926 10.0429L45.8802 9.64823C45.8874 9.61677 45.9011 9.58704 45.9204 9.56082C45.9398 9.53461 45.9644 9.51244 45.9928 9.49565C46.0211 9.47886 46.0527 9.46779 46.0856 9.4631C46.1185 9.45841 46.152 9.4602 46.1842 9.46836L46.5654 9.64823L47.024 9.25351L45.5556 7.64966L45.097 8.04937L45.231 8.4341C45.2369 8.46583 45.2358 8.4984 45.2278 8.52969C45.2199 8.56099 45.2052 8.59031 45.1848 8.61576C45.1644 8.6412 45.1387 8.6622 45.1094 8.67739C45.08 8.69257 45.0478 8.70161 45.0146 8.70391Z" fill="#232D23"/>
</g>
<defs>
<clipPath id="clip0_267_240">
<rect width="108" height="28" fill="white"/>
</clipPath>
</defs>
</svg>
