<svg width="8" height="53" viewBox="0 0 8 53" fill="none" xmlns="http://www.w3.org/2000/svg">
<path d="M3.64644 52.3535C3.84171 52.5488 4.15829 52.5488 4.35355 52.3535L7.53553 49.1716C7.73079 48.9763 7.73079 48.6597 7.53553 48.4645C7.34027 48.2692 7.02369 48.2692 6.82842 48.4645L4 51.2929L1.17157 48.4645C0.976309 48.2692 0.659726 48.2692 0.464464 48.4645C0.269202 48.6597 0.269202 48.9763 0.464464 49.1716L3.64644 52.3535ZM3.5 -2.18557e-08L3.5 1L4.5 1L4.5 2.18557e-08L3.5 -2.18557e-08ZM3.5 3L3.5 5L4.5 5L4.5 3L3.5 3ZM3.5 7L3.5 9L4.5 9L4.5 7L3.5 7ZM3.5 11L3.5 13L4.5 13L4.5 11L3.5 11ZM3.5 15L3.5 17L4.5 17L4.5 15L3.5 15ZM3.5 19L3.5 21L4.5 21L4.5 19L3.5 19ZM3.5 23L3.5 25L4.5 25L4.5 23L3.5 23ZM3.5 27L3.5 29L4.5 29L4.5 27L3.5 27ZM3.5 31L3.5 33L4.5 33L4.5 31L3.5 31ZM3.5 35L3.5 37L4.5 37L4.5 35L3.5 35ZM3.5 39L3.5 41L4.5 41L4.5 39L3.5 39ZM3.5 43L3.5 45L4.5 45L4.5 43L3.5 43ZM3.5 47L3.5 49L4.5 49L4.5 47L3.5 47ZM3.5 51L3.5 52L4.5 52L4.5 51L3.5 51Z" fill="#AB6721"/>
</svg>
