<svg width="24" height="24" viewBox="0 0 24 24" fill="none" xmlns="http://www.w3.org/2000/svg">
<path fill-rule="evenodd" clip-rule="evenodd" d="M14.0786 4H6C4.89543 4 4 4.89543 4 6V18C4 19.1046 4.89543 20 6 20H18C19.1046 20 20 19.1046 20 18V10.922L18 12.922V18H6V6L12.0786 6L14.0786 4Z" fill="#9B9F89"/>
<path d="M16.3639 4.70711C16.7545 4.31658 17.3876 4.31658 17.7782 4.70711L19.8995 6.82843C20.29 7.21895 20.29 7.85212 19.8995 8.24264L13.7417 14.4004C13.6071 14.5351 13.4367 14.6285 13.2508 14.6696L10.8669 15.1974C10.197 15.3457 9.58007 14.7907 9.65704 14.1089L9.96074 11.4187C9.98614 11.1936 10.0872 10.9839 10.2473 10.8237L16.3639 4.70711Z" stroke="#9B9F89" stroke-width="2"/>
<line x1="13.7071" y1="7.29289" x2="17.7071" y2="11.2929" stroke="#9B9F89" stroke-width="2"/>
</svg>
