<svg width="20" height="20" viewBox="0 0 20 20" fill="none" xmlns="http://www.w3.org/2000/svg">
<path fill-rule="evenodd" clip-rule="evenodd" d="M4.31016 10C4.31016 9.35048 4.41797 8.72766 4.61063 8.1436L1.24031 5.57001C0.58344 6.9036 0.21344 8.40641 0.21344 10C0.21344 11.5924 0.583127 13.0941 1.23891 14.4269L4.60735 11.8483C4.41656 11.2669 4.31016 10.6464 4.31016 10Z" fill="#FBBC05"/>
<path fill-rule="evenodd" clip-rule="evenodd" d="M10.2277 4.09094C11.6388 4.09094 12.9133 4.59094 13.9147 5.40906L16.8279 2.5C15.0527 0.954531 12.7768 0 10.2277 0C6.2702 0 2.86895 2.26312 1.24036 5.57L4.61051 8.14359C5.38708 5.78641 7.60067 4.09094 10.2277 4.09094Z" fill="#EA4335"/>
<path fill-rule="evenodd" clip-rule="evenodd" d="M10.2277 15.909C7.60083 15.909 5.38723 14.2136 4.61067 11.8564L1.24036 14.4295C2.86895 17.7369 6.2702 20 10.2277 20C12.6702 20 15.0022 19.1326 16.7524 17.5076L13.5533 15.0345C12.6507 15.6031 11.514 15.909 10.2277 15.909Z" fill="#34A853"/>
<path fill-rule="evenodd" clip-rule="evenodd" d="M19.7866 10C19.7866 9.40907 19.6955 8.77267 19.5589 8.18188H10.2277V12.0455H15.5989C15.3303 13.3628 14.5994 14.3755 13.5533 15.0345L16.7523 17.5077C18.5908 15.8014 19.7866 13.2595 19.7866 10Z" fill="#4285F4"/>
</svg>
