<svg width="24" height="24" viewBox="0 0 24 24" fill="none" xmlns="http://www.w3.org/2000/svg"><path fill-rule="evenodd" clip-rule="evenodd" d="M12.0434 4C8.7057 4 6 6.7057 6 10.0434c0 3.3376 2.7057 6.0433 6.0434 6.0433.6183 0 1.215-.0929 1.7768-.2654l1.1947 1.6987c-.373.1484-.7598.2696-1.1578.3614l-.8436 3.3743c-.2525 1.0099-1.6878 1.0099-1.9403 0l-.8436-3.3743C6.6609 17.0589 4 13.8619 4 10.0434 4 5.60113 7.60113 2 12.0434 2c4.4422 0 8.0433 3.60113 8.0433 8.0434 0 1.9449-.6903 3.7286-1.8393 5.1194l-1.2082-1.7178c.661-.969 1.0475-2.1402 1.0475-3.4016C18.0867 6.7057 15.381 4 12.0434 4z" fill="#145049"/><path fill-rule="evenodd" clip-rule="evenodd" d="M9.75 10c0-1.24264 1.0074-2.25 2.25-2.25s2.25 1.00736 2.25 2.25c0 1.2426-1.0074 2.25-2.25 2.25S9.75 11.2426 9.75 10zM12 6.25c-2.07107 0-3.75 1.67893-3.75 3.75 0 2.0711 1.67893 3.75 3.75 3.75.4874 0 .9531-.093 1.3803-.2622.0195.0387.0428.0763.0697.1122l2.1 2.8c.2485.3314.7186.3985 1.05.15.3314-.2485.3985-.7186.15-1.05l-2.1-2.8a.883382.883382 0 00-.0206-.0263C15.3211 11.9934 15.75 11.0468 15.75 10c0-2.07107-1.6789-3.75-3.75-3.75z" fill="#C79E74"/></svg>