<svg width="24" height="24" viewBox="0 0 24 24" fill="none" xmlns="http://www.w3.org/2000/svg"><path fill-rule="evenodd" clip-rule="evenodd" d="M11.9999 2.0061c-4.44223 0-8.04336 3.60114-8.04336 8.0434 0 3.8185 2.66091 7.0155 6.22966 7.838l.8436 3.3743c.2524 1.0099 1.6878 1.0099 1.9402 0l.8436-3.3743c3.5687-.8225 6.2296-4.0195 6.2296-7.838 0-4.44226-3.6011-8.0434-8.0433-8.0434zm-6.04336 8.0434c0-3.3377 2.7057-6.0434 6.04336-6.0434 3.3376 0 6.0433 2.7057 6.0433 6.0434 0 3.3376-2.7057 6.0433-6.0433 6.0433-3.33766 0-6.04336-2.7057-6.04336-6.0433z" fill="#145049"/><path d="M11.536 6.15547c.1679-.41823.76-.41823.928 0l.7121 1.77345c.0715.1781.2387.29954.4302.31253l1.9067.12928c.4497.03049.6326.59358.2868.88256l-1.4666 1.22531c-.1473.1231-.2112.3196-.1643.5057l.4662 1.8534c.11.437-.369.785-.7507.5454l-1.6186-1.0161c-.1625-.1021-.3691-.1021-.5317 0l-1.6185 1.0161c-.38175.2396-.86075-.1084-.75079-.5454l.46625-1.8534c.04682-.1861-.01702-.3826-.16431-.5057L8.20018 9.25329c-.34587-.28898-.16291-.85207.28676-.88256l1.90676-.12928c.1914-.01299.3586-.13443.4301-.31253l.7122-1.77345z" fill="#C79E74"/></svg>