<svg width="52" height="78" viewBox="0 0 52 78" fill="none" xmlns="http://www.w3.org/2000/svg"><path d="M5.52271.00003c.43304-.001579.86466.051338 1.28536.157578 0 0 .55811.175079.77798.262619C18.3255 4.39463 39.9229 24.3016 49.8675 33.8962c.6733.6549 1.2098 1.4456 1.5765 2.3234.3668.8777.556 1.824.556 2.7803 0 .9564-.1892 1.9026-.556 2.7803-.3667.8778-.9032 1.6685-1.5765 2.3234-9.9446 9.5946-31.542 29.5016-42.28145 33.476-.21986 0-.77798.2626-.77798.2626-.4207.1063-.85232.1592-1.28535.1576-.3698.0036-.73874-.0376-1.09932-.1226-1.24157-.259-2.35815-.9552-3.15982-1.9702C.461899 74.8919.024625 73.6207.026125 72.3096c-.034834-.2673-.034834-.5382 0-.8054.123261-.551.275706-1.0946.456641-1.6283L7.2478 46.2921c.07157-.2605.20822-.4969.39618-.6853.18795-.1884.42056-.3222.67439-.3879.25383-.0657.5199-.061.77139.0137s.47952.2167.6611.4117l2.38464 2.4862c.84.866 1.9772 1.3523 3.1627 1.3523s2.3227-.4863 3.1627-1.3523l6.8834-7.1259c.5175-.5309.8251-1.2426.8625-1.9959-.0374-.7533-.345-1.4651-.8625-1.996l-6.8835-7.1259c-.8399-.866-1.9771-1.3522-3.1626-1.3522-1.1855 0-2.3227.4862-3.1627 1.3522L9.75086 32.338c-.18082.1908-.40649.3296-.65482.4028-.24833.0732-.51078.0782-.76156.0146-.25079-.0635-.48129-.1936-.66885-.3773-.18755-.1837-.32572-.4147-.40092-.6704L.499676 8.12391c-.180935-.53368-.33338-1.07726-.45664-1.62827a3.116623 3.116623 0 010-.80539c.000968-1.3124.43879-2.58437 1.239724-3.60167C2.0837 1.07127 3.19882.370781 4.44031.105079c.35691-.069412.71925-.104576 1.0824-.105049z" fill="#145049"/></svg>