<svg width="297" height="363" viewBox="0 0 297 363" fill="none" xmlns="http://www.w3.org/2000/svg"><path d="M296.967 147h-44.724c-2.898-.016-5.689-1.065-7.84-2.948-2.152-1.882-3.513-4.467-3.824-7.26-2.65-21.87-13.491-42.035-30.464-56.6689-16.974-14.6338-38.899-22.7179-61.615-22.7179s-44.641 8.0841-61.6147 22.7179C69.9117 94.757 59.071 114.922 56.4207 136.792c-.3111 2.793-1.6721 5.378-3.8234 7.26-2.1513 1.883-4.9423 2.932-7.8407 2.948H.033328C-.385406 127.844 3.14524 108.799 10.4183 90.9831c7.273-17.8163 18.1421-34.0458 31.9699-47.737 13.8279-13.6913 30.3363-24.5688 48.5575-31.9949C109.167 3.82516 128.734 0 148.5 0s39.333 3.82516 57.554 11.2512c18.221 7.4261 34.73 18.3036 48.558 31.9949 13.828 13.6912 24.697 29.9207 31.97 47.737 7.273 17.8159 10.803 36.8609 10.385 56.0169z" fill="url(#paint0_linear_515_879)"/><path d="M149 264c68.483 0 124-52.607 124-117.5C273 81.6066 217.483 29 149 29 80.5167 29 25 81.6066 25 146.5 25 211.393 80.5167 264 149 264z" fill="url(#paint1_linear_515_879)"/><path d="M297 186.923c.006 1.64-.196 3.275-.6 4.869 0 0-.667 2.115-1 2.947-15.133 40.687-90.933 122.507-127.466 160.182-2.494 2.551-5.505 4.583-8.847 5.973-3.342 1.389-6.945 2.106-10.587 2.106-3.641 0-7.244-.717-10.586-2.106-3.343-1.39-6.353-3.422-8.847-5.973C92.5339 317.246 16.7341 235.426 1.60081 194.739c0-.832-1-2.947-1-2.947-.404528-1.594-.606005-3.229-.599998-4.869-.013574-1.401.14304-2.799.466665-4.165.986153-4.704 3.637173-8.934 7.502183-11.971 3.86504-3.037 8.70534-4.694 13.69774-4.688 1.0176-.132 2.0491-.132 3.0667 0 2.0981.467 4.1679 1.044 6.1999 1.73l89.8 25.629c.992.271 1.892.789 2.609 1.501.718.712 1.227 1.593 1.477 2.555.251.961.232 1.969-.052 2.922-.284.953-.825 1.817-1.568 2.505l-9.466 9.034c-3.298 3.182-5.149 7.49-5.149 11.982 0 4.491 1.851 8.799 5.149 11.981l27.133 26.078c2.022 1.961 4.732 3.126 7.6 3.268 2.868-.142 5.578-1.307 7.6-3.268l27.133-26.078c3.298-3.182 5.149-7.49 5.149-11.981 0-4.492-1.851-8.8-5.149-11.982l-9.333-9.034c-.727-.685-1.255-1.54-1.534-2.481-.279-.941-.298-1.935-.056-2.885.242-.95.738-1.823 1.437-2.534.699-.711 1.579-1.234 2.553-1.519l89.8-25.629c2.032-.685 4.102-1.263 6.2-1.73 1.017-.132 2.049-.132 3.066 0 4.998.004 9.841 1.662 13.714 4.697 3.874 3.034 6.541 7.259 7.553 11.962.264 1.352.398 2.725.4 4.101z" fill="url(#paint2_linear_515_879)"/><defs><linearGradient id="paint0_linear_515_879" x1="148.5" y1="0" x2="148.5" y2="147" gradientUnits="userSpaceOnUse"><stop stop-color="#fff" stop-opacity=".35"/><stop offset="1" stop-color="#fff" stop-opacity="0"/></linearGradient><linearGradient id="paint1_linear_515_879" x1="149" y1="29" x2="149" y2="264" gradientUnits="userSpaceOnUse"><stop stop-color="#fff" stop-opacity=".35"/><stop offset="1" stop-color="#fff" stop-opacity="0"/></linearGradient><linearGradient id="paint2_linear_515_879" x1="148.5" y1="166" x2="148.5" y2="363" gradientUnits="userSpaceOnUse"><stop stop-color="#fff" stop-opacity=".35"/><stop offset="1" stop-color="#fff" stop-opacity="0"/></linearGradient></defs></svg>