<svg width="32" height="32" viewBox="0 0 32 32" fill="none" xmlns="http://www.w3.org/2000/svg"><path d="M27.979 13.3679h-3.4571c-.2241-.0012-.4398-.0824-.6061-.228-.1663-.1456-.2715-.3454-.2956-.5615-.2048-1.6912-1.0428-3.2506-2.3549-4.38228-1.3121-1.13167-3.0069-1.75683-4.7628-1.75683-1.7559 0-3.4508.62516-4.7628 1.75683-1.3121 1.13168-2.15007 2.69108-2.35494 4.38228-.02405.2161-.12925.4159-.29555.5615-.16629.1456-.38204.2268-.60608.228H5.02601c-.03236-1.4814.24055-2.9542.80276-4.33195.56221-1.37778 1.40238-2.63284 2.47128-3.69162 1.0689-1.05878 2.34495-1.89997 3.75345-2.47425C13.462 2.29581 14.9746 2 16.5025 2c1.5279 0 3.0405.29581 4.449.87008 1.4084.57428 2.6845 1.41547 3.7534 2.47425 1.0689 1.05878 1.9091 2.31384 2.4713 3.69162.5622 1.37775.8351 2.85055.8028 4.33195z" fill="#145049"/><path d="M16.4534 16.1059c1.9833 0 3.591-1.5592 3.591-3.4825 0-1.9234-1.6077-3.48253-3.591-3.48253-1.9833 0-3.5911 1.55913-3.5911 3.48253 0 1.9233 1.6078 3.4825 3.5911 3.4825z" fill="#C79E74"/><path d="M27.953 16.4756c.0005.1279-.0151.2554-.0463.3797 0 0-.0516.1649-.0773.2298-1.1696 3.1727-7.0276 9.5532-9.851 12.4911-.1927.1989-.4254.3574-.6837.4657-.2583.1084-.5367.1643-.8182.1643-.2814 0-.5598-.0559-.8181-.1643-.2583-.1083-.491-.2668-.6837-.4657-2.8234-2.9379-8.68144-9.3184-9.85098-12.4911 0-.0649-.07729-.2298-.07729-.2298-.03126-.1243-.04683-.2518-.04637-.3797-.00105-.1093.01106-.2183.03607-.3248.07621-.3668.28109-.6967.57979-.9335s.67277-.366 1.0586-.3656a.912746.912746 0 01.237 0c.16215.0364.32211.0815.47915.1349l6.94003 1.9986c.0766.0211.1462.0615.2016.117.0555.0556.0949.1243.1142.1993.0193.075.0179.1536-.0041.2279-.0219.0743-.0637.1416-.1211.1953l-.7316.7045c-.2549.2481-.3979.5841-.3979.9343 0 .3502.143.6862.3979.9343l2.0969 2.0336c.1563.1529.3657.2437.5874.2548.2216-.0111.4311-.1019.5873-.2548l2.097-2.0336c.2548-.2481.3979-.5841.3979-.9343 0-.3502-.1431-.6862-.3979-.9343l-.7214-.7045c-.0561-.0535-.0969-.1201-.1185-.1935-.0215-.0734-.023-.1509-.0043-.225s.057-.1422.111-.1976c.0541-.0554.1221-.0962.1973-.1184l6.94-1.9986c.1571-.0534.317-.0985.4792-.1349a.912746.912746 0 01.237 0c.3862.0003.7605.1296 1.0598.3663.2994.2366.5055.566.5837.9328.0204.1054.0308.2125.0309.3198z" fill="#145049"/></svg>