<svg width="42" height="18" viewBox="0 0 42 18" fill="none" xmlns="http://www.w3.org/2000/svg">
<g clip-path="url(#clip0_799_109)">
<path d="M0.203247 17.8053H41.7968" stroke="#1080BF" stroke-width="0.75" stroke-miterlimit="10" stroke-linecap="round"/>
<path d="M5.21724 9.32996C3.73358 10.0405 2.71533 11.5101 2.71533 13.2056C2.71533 15.5979 4.73962 17.5387 7.2395 17.5387C9.73938 17.5387 11.7637 15.5999 11.7637 13.2056C11.7637 12.4815 11.5787 11.7982 11.2495 11.1987L5.21724 9.32996Z" stroke="#1080BF" stroke-width="0.75" stroke-miterlimit="10" stroke-linecap="round"/>
<path d="M31.2749 8.19702C28.5413 8.19702 26.326 10.3188 26.326 12.9369C26.326 15.5551 28.5413 17.6769 31.2749 17.6769C34.0085 17.6769 36.2239 15.5551 36.2239 12.9369C36.2239 10.3188 34.0085 8.19702 31.2749 8.19702Z" stroke="#1080BF" stroke-width="0.75" stroke-miterlimit="10" stroke-linecap="round"/>
<path d="M6.69684 14.8018H7.78012L8.65609 14.1925L8.98941 13.2056L8.65609 12.2206L7.78012 11.6113H6.69684L5.82087 12.2206L5.48755 13.2056L5.82087 14.1925L6.69684 14.8018Z" stroke="#1080BF" stroke-width="0.75" stroke-miterlimit="10" stroke-linecap="round"/>
<path d="M30.6611 14.7648H31.8887L32.8806 14.0738L33.2606 12.9545L32.8806 11.8372L31.8887 11.1461H30.6611L29.6673 11.8372L29.2872 12.9545L29.6673 14.0738L30.6611 14.7648Z" stroke="#1080BF" stroke-width="0.75" stroke-miterlimit="10" stroke-linecap="round"/>
<path d="M22.5029 4.86255H13.0054" stroke="#1080BF" stroke-width="0.75" stroke-miterlimit="10" stroke-linecap="round"/>
<path d="M17.1719 6.33618H21.7774" stroke="#1080BF" stroke-width="0.75" stroke-miterlimit="10" stroke-linecap="round"/>
<path d="M13.1884 4.23581C13.1884 4.23581 13.664 1.93884 18.432 2.68633C18.432 2.68633 20.2267 3.02309 22.7245 4.84314C22.7245 4.84314 25.891 5.9741 28.2486 3.62263L32.2952 3.35985C32.2952 3.35985 32.8236 3.35595 32.85 3.64015L35.1528 3.68492C35.1528 3.68492 36.043 3.68492 34.1894 4.93657C34.1894 4.93657 33.9231 5.24024 34.7158 5.39207C34.7158 5.39207 36.4393 5.84757 36.6344 6.02471C36.6344 6.02471 36.8011 6.26025 35.9312 6.70796C35.9312 6.70796 36.9962 8.09782 37.0836 9.06721C37.0836 9.06721 34.8316 6.04223 30.9782 5.83979C30.9782 5.83979 28.2689 5.46994 26.3686 7.40678C26.3686 7.40678 25.1715 8.77133 21.688 8.26717C21.688 8.26717 19.3161 6.13372 17.0195 6.35368C17.0195 6.35368 11.9933 6.95712 13.1904 4.2397L13.1884 4.23581Z" stroke="#1080BF" stroke-width="0.75" stroke-linecap="round" stroke-linejoin="round"/>
<path d="M7.23743 13.2056L12.5807 2.10425C12.5807 2.10425 13.1355 0.537259 16.0907 0.58787" stroke="#1080BF" stroke-width="0.75" stroke-miterlimit="10" stroke-linecap="round"/>
<path d="M12.1966 1.88433L11.9567 0.646308C11.8755 0.227794 11.3531 0.0506551 11.0157 0.327069L10.0158 1.14463C9.6784 1.42105 9.78002 1.94273 10.1987 2.08483L11.4364 2.50529C11.8551 2.64739 12.2758 2.30284 12.1945 1.88433H12.1966Z" stroke="#1080BF" stroke-width="0.75" stroke-miterlimit="10" stroke-linecap="round"/>
<path d="M11.4324 3.22167L10.2515 2.25616C9.82067 1.90383 9.15607 2.19777 9.15607 2.73892V4.67187C9.15607 5.21496 9.82067 5.50695 10.2515 5.15462L11.4324 4.18912C11.7433 3.93606 11.7433 3.47667 11.4324 3.22167Z" stroke="#1080BF" stroke-width="0.75" stroke-miterlimit="10" stroke-linecap="round"/>
<path d="M22.5029 4.68549C22.5029 4.68549 23.6248 6.36928 26.7385 5.94882C26.7385 5.94882 31.2383 4.51809 31.8196 4.23389" stroke="#1080BF" stroke-width="0.75" stroke-miterlimit="10" stroke-linecap="round"/>
<path d="M4.96112 9.28323C4.96112 9.28323 9.05239 9.00487 10.7413 11.2045C10.7413 11.2045 11.534 11.3816 11.664 10.7743C11.664 10.7743 9.18246 7.13421 4.96112 9.28323V9.28323Z" stroke="#1080BF" stroke-width="0.75" stroke-linecap="round" stroke-linejoin="round"/>
<path d="M12.5278 6.89673L13.5481 12.863C13.5481 12.863 13.7595 14.9867 15.8346 14.9517H21.3242C21.3242 14.9517 24.5964 15.121 25.265 13.8733C25.265 13.8733 25.6512 13.0304 26.2507 12.5243" stroke="#1080BF" stroke-width="0.75" stroke-miterlimit="10" stroke-linecap="round"/>
<path d="M16.7715 12.316C17.3148 12.316 17.7552 11.8942 17.7552 11.3739C17.7552 10.8536 17.3148 10.4318 16.7715 10.4318C16.2283 10.4318 15.7878 10.8536 15.7878 11.3739C15.7878 11.8942 16.2283 12.316 16.7715 12.316Z" stroke="#1080BF" stroke-width="0.75" stroke-miterlimit="10" stroke-linecap="round"/>
<path d="M17.4504 7.24719L22.1473 10.6342C22.1473 10.6342 23.0964 11.191 23.6249 10.6342L25.4723 9.37091" stroke="#1080BF" stroke-width="0.75" stroke-miterlimit="10" stroke-linecap="round"/>
<path d="M31.5045 12.9351L25.0435 10.0055" stroke="#1080BF" stroke-width="0.75" stroke-miterlimit="10" stroke-linecap="round"/>
<path d="M24.3504 8.28269L27.771 9.58884L26.3666 7.40479" stroke="#1080BF" stroke-width="0.75" stroke-linecap="round" stroke-linejoin="round"/>
<path d="M14.3082 9.91589L14.7696 12.8474C14.7696 12.8474 14.9688 13.8577 16.4321 13.7565C16.4321 13.7565 20.9583 13.554 22.2245 13.0985C22.2245 13.0985 23.1615 12.4484 25.0414 11.8391" stroke="#1080BF" stroke-width="0.75" stroke-miterlimit="10" stroke-linecap="round"/>
<path d="M30.2058 5.81638C30.2058 5.81638 32.7565 5.59641 34.1894 4.93652" stroke="#1080BF" stroke-width="0.75" stroke-miterlimit="10" stroke-linecap="round"/>
</g>
<defs>
<clipPath id="clip0_799_109">
<rect width="42" height="18" fill="white"/>
</clipPath>
</defs>
</svg>
