<svg width="24" height="24" viewBox="0 0 24 24" fill="none" xmlns="http://www.w3.org/2000/svg"><path fill-rule="evenodd" clip-rule="evenodd" d="M4 10.5C4 6.91015 6.91015 4 10.5 4c3.5899 0 6.5 2.91015 6.5 6.5 0 3.5899-2.9101 6.5-6.5 6.5C6.91015 17 4 14.0899 4 10.5zM10.5 2C5.80558 2 2 5.80558 2 10.5c0 4.6944 3.80558 8.5 8.5 8.5 1.8787 0 3.615-.6095 5.022-1.6415l5.3141 4.4638c.6552.5504 1.5366-.331.9862-.9862l-4.4638-5.3141C18.3905 14.115 19 12.3787 19 10.5 19 5.80558 15.1944 2 10.5 2z" fill="#145049"/></svg>