<svg width="204" height="52" viewBox="0 0 204 52" fill="none" xmlns="http://www.w3.org/2000/svg"><g clip-path="url(#clip0_1201_480)" fill="#fff"><path d="M43.4042 20.6738h-6.5301c-.4232-.0022-.8307-.1529-1.1449-.4233-.3141-.2704-.5128-.6416-.5582-1.0428-.387-3.1408-1.9699-6.0369-4.4482-8.1386-2.4783-2.10169-5.6797-3.2627-8.9964-3.2627-3.3168 0-6.5181 1.16101-8.9965 3.2627-2.4783 2.1017-4.06117 4.9978-4.44815 8.1386-.04542.4012-.24414.7724-.55825 1.0428-.31412.2704-.72164.4211-1.14483.4233H.048568c-.06114-2.7512.454373-5.4863 1.516322-8.045C2.62683 10.07 4.21383 7.73921 6.23286 5.7729c2.01902-1.9663 4.42944-3.52851 7.08994-4.59502C15.9833.111371 18.8403-.437988 21.7264-.437988c2.886 0 5.7431.549359 8.4035 1.615868 2.6605 1.06651 5.071 2.62872 7.09 4.59502 2.019 1.96631 3.606 4.2971 4.6679 6.8559 1.062 2.5587 1.5775 5.2938 1.5164 8.045z"/><path d="M21.634 25.7588c3.7462 0 6.7831-2.8956 6.7831-6.4675 0-3.572-3.0369-6.4676-6.7831-6.4676-3.7463 0-6.7832 2.8956-6.7832 6.4676 0 3.5719 3.0369 6.4675 6.7832 6.4675z"/><path d="M43.3557 26.4454c.0009.2376-.0285.4744-.0876.7053 0 0-.0973.3062-.146.4268-2.2091 5.8922-13.2743 17.7416-18.6073 23.1977-.3641.3694-.8036.6637-1.2915.865-.4879.2012-1.0138.305-1.5454.305-.5316 0-1.0575-.1038-1.5454-.305-.4879-.2013-.9274-.4956-1.2914-.865C13.508 45.3191 2.44282 33.4697.233684 27.5775c0-.1206-.145978-.4268-.145978-.4268-.059053-.2309-.088464-.4677-.087587-.7053-.001982-.2028.02088-.4053.068123-.6031.143958-.6812.53095-1.2938 1.095158-1.7336.56421-.4399 1.2708-.6798 1.99958-.679.14855-.0191.29912-.0191.44767 0 .30628.0677.60842.1513.90507.2506l13.10888 3.7116c.1448.0393.2762.1143.3809.2174.1048.1031.1791.2307.2156.37.0366.1392.0339.2852-.0076.4232s-.1204.2631-.2288.3627l-1.382 1.3084c-.4813.4608-.7516 1.0847-.7516 1.7352 0 .6504.2703 1.2743.7516 1.7351l3.9609 3.7766c.2951.284.6907.4527 1.1094.4733.4188-.0206.8144-.1893 1.1095-.4733l3.9609-3.7766c.4813-.4608.7516-1.0847.7516-1.7351 0-.6505-.2703-1.2744-.7516-1.7352l-1.3625-1.3084c-.1061-.0992-.1832-.223-.2239-.3593-.0407-.1362-.0435-.2802-.0081-.4178.0353-.1376.1076-.264.2097-.3669.1021-.1029.2305-.1788.3726-.22l13.1089-3.7116c.2967-.0993.5988-.183.9051-.2506.1485-.0191.2991-.0191.4476 0 .7295.0005 1.4365.2408 2.002.6802.5655.4394.9548 1.0512 1.1025 1.7324.0386.1958.0581.3946.0584.5938zM202.861 45.1427c.011.049.011.0995 0 .1485v.0928c-.457 1.2155-2.754 3.7116-3.892 4.8158-.076.0767-.167.1378-.268.1796-.102.0418-.211.0633-.321.0633-.11 0-.22-.0215-.321-.0633s-.192-.1029-.268-.1796c-1.109-1.1413-3.406-3.6003-3.893-4.8158v-.0928a.73695.73695 0 010-.1485.607515.607515 0 010-.1206c.03-.1417.11-.2691.227-.3606.117-.0914.264-.1411.416-.1405h.097l.185.0557 2.715.7794c.03.0078.056.0228.078.0434.021.0207.037.0464.045.0746.008.0281.008.0577 0 .0858-.008.0282-.024.0539-.045.0746l-.292.2691c-.099.097-.154.2268-.154.3619s.055.2649.154.3619l.827.7794c.059.0589.139.0952.224.1021.088-.0063.171-.0426.234-.1021l.817-.7794c.051-.0468.092-.103.12-.1652.028-.0622.042-.1291.042-.1967 0-.0677-.014-.1346-.042-.1968-.028-.0622-.069-.1183-.12-.1651l-.282-.2691c-.022-.0207-.037-.0464-.045-.0746a.156368.156368 0 010-.0858c.008-.0282.024-.0539.045-.0746.022-.0206.048-.0356.078-.0434l2.715-.7794.185-.0557h.097c.151.0012.297.0515.414.1426.117.0911.197.2176.228.3585.005.0401.005.0805 0 .1206zM185.782 19.7923c.01.0708.01.1426 0 .2134v.1299c-.516 1.8001-3.105 5.419-4.35 7.0985-.068.1096-.165.2005-.281.2636-.116.0631-.247.0963-.381.0963s-.265-.0332-.381-.0963c-.116-.0631-.213-.154-.281-.2636-1.245-1.6795-3.834-5.2984-4.35-7.0985v-.1299a1.51986 1.51986 0 010-.2134 1.15012 1.15012 0 010-.1856c.01-.1835.088-.3578.22-.4919s.309-.2195.5-.2412c.036-.0047.072-.0047.107 0l.214.0836 3.056 1.1413c.036.0197.067.0464.091.0783.024.032.041.0684.049.107.009.0386.008.0784-.001.1169-.009.0384-.026.0746-.051.1061l-.321.4082c-.113.1554-.174.3399-.174.5289 0 .1891.061.3736.174.529l.973 1.1506c.03.0416.069.0764.114.1021.045.0256.096.0415.149.0463.052-.006.102-.0223.147-.0479.046-.0255.085-.0598.115-.1005l.925-1.1506c.113-.1554.173-.3399.173-.529 0-.189-.06-.3735-.173-.5289l-.321-.4082c-.025-.0309-.044-.0666-.053-.1046-.01-.0381-.011-.0776-.004-.1162.007-.0385.023-.0751.046-.1075.023-.0323.054-.0596.089-.08l3.065-1.1413.214-.0836c.033-.0045.065-.0045.098 0 .193.0196.372.1041.506.2385.134.1343.213.3096.223.4946-.036.0655-.078.1276-.126.1856zM67.8509 44.1592a.69452.69452 0 010 .1484v.0928c-.4574 1.2156-2.7541 3.7117-3.8928 4.8159-.0746.0764-.165.1374-.2655.179-.1004.0417-.2088.0632-.3184.0632-.1095 0-.2179-.0215-.3184-.0632-.1004-.0416-.1908-.1026-.2655-.179-1.1094-1.1413-3.4061-3.6003-3.8927-4.8159v-.0928a.681734.681734 0 010-.1484.51752.51752 0 010-.1206c.0293-.1417.1095-.2692.2267-.3606.1172-.0914.2641-.1411.4156-.1405h.2725l2.7249.7794c.0287.0089.0544.0247.0748.0459.0204.0212.0347.047.0416.075.0068.028.006.0572-.0025.0848-.0084.0276-.0242.0526-.0458.0727l-.2822.2691c-.0987.097-.1539.2268-.1539.3619s.0552.2649.1539.3619l.8175.7794c.0625.0595.1454.0958.2335.1021.0882-.0063.171-.0426.2336-.1021l.8175-.7794c.0512-.0468.092-.103.1198-.1652.0279-.0622.0422-.1291.0422-.1967 0-.0676-.0143-.1346-.0422-.1968-.0278-.0622-.0686-.1183-.1198-.1651l-.2822-.2691c-.0215-.0207-.0369-.0464-.0448-.0746-.0078-.0281-.0078-.0577.0001-.0858.0079-.0282.0233-.0539.0448-.0745.0215-.0207.0483-.0357.0777-.0435l2.6957-.7052h.2336c.1522.0008.2995.0507.418.1418.1184.091.201.2177.234.3593 0 0 .0487.0093.0487.0464zM65.4372 7.57178c0 1.14133-.107 2.62602-.1654 4.00852h1.45c.2614.0052.5194-.0567.747-.1791.2277-.1225.4167-.3009.5474-.5168l1.9464.631c1.3916.4454.5255 1.3269.5255 1.8001.0416 2.6381-.0981 5.2759-.4185 7.8965-.4574 3.6282-1.1581 6.0222-2.8125 6.7459-.2453.1484-.5335.2194-.8235.2027-.29-.0166-.5671-.12-.792-.2955-.73-.5913-1.5302-1.099-2.3843-1.5125-.3309-.1299-.4379-.501.1654-.4732 3.1434.1578 3.1726.1578 3.8928-3.5075.4403-3.0414.6743-6.1068.7007-9.177h-2.8125c-.0682.7887-.0973 1.4847-.1655 1.9579-.8077 5.9943-2.2188 11.2648-5.5958 13.6124-.3017.2227-.7299 0-.5353-.3804 1.6642-2.8394 2.8223-5.8366 3.5814-12.9072.1654-1.4197.2919-5.4283.3601-7.85943h-2.3844c-.5936 0-.7882-.31548-1.3235-1.64239h6.9194c-.2223-.14255-.4125-.32595-.5596-.53944-.147-.2135-.248-.45282-.2968-.70396-.4964-1.44754-1.0997-3.0621-1.3236-3.60029-.1362-.315485.0974-.658811.5256-.408276 1.2298.687816 2.2732 1.641296 3.046 2.783726.2682.39113.3664.86637.2738 1.32524-.0927.45888-.3688.86544-.7701 1.13372h2.978c.5936 0 .9732-.31549 1.489-.92791.798.66809 1.3235 1.07637 1.3235 1.48465 0 .72377-.6618 1.10421-1.7907 1.10421l-5.518-.05567zM81.2516 18.3355l.3017.566c1.6293 3.1396 4.0668 5.834 7.0848 7.8316.3601.2505.2627.3804.0681.4732-2.1897 1.0393-2.1897 1.1321-2.9196.5011-2.2896-2.0177-4.1643-4.4251-5.5277-7.0985-1.2085-2.6332-2.0179-5.417-2.4038-8.2677-.4671.0928-.9732.1856-1.4597.2506v12.1185c1.3624-.5382 2.5497-1.0764 3.9706-1.6703.5644-.2505.7299.2784.4379.5011-1.8199 1.2991-4.7394 3.2198-6.8123 4.4818-.9732.6031-1.0608.5103-2.978-1.3548 1.0608-.3433 2.0145-.6959 2.8417-.9279v-14.698l2.0535.4454c.0914.0099.1798.0373.26.0803.0803.043.1507.1009.2071.1702 2.5741-.8903 5.0302-2.06429 7.3184-3.49823l1.2262 1.19701c.4963.47323.399.69592 0 .85372-1.8381.7184-3.7276 1.3107-5.6542 1.7723.353 1.8429.884 3.6507 1.5863 5.4004l.399.8722zm-9.5276-6.9407c1.9691-3.46071 3.4483-7.15505 4.3989-10.986475l1.7322.853675c.7591.38044.7883.40828.4964 1.07638-.3698.81655-.9732 1.95788-1.5961 3.21984h8.0094c.5644 0 .9732-.28765 1.5182-.92791.798.66809 1.304 1.0207 1.304 1.45682 0 .69593-.6228 1.10421-1.7517 1.10421H75.792c-.9517 1.67745-2.144 3.22026-3.5424 4.58386-.399.3433-.8273.0928-.5256-.3804zM105.484 11.7102v15.4311c0 1.5125-1.363 1.9579-2.715 1.7074V14.6424c-1.411 1.4223-2.9626 2.7119-4.6327 3.8508-.3309.2227-.7591-.1577-.4282-.5382 3.4529-3.6234 6.4209-7.641 8.8369-11.96071l1.421 1.03926c.564.41756.759.5753.399 1.07637-.701.94647-1.694 2.24558-2.881 3.60028zm-7.5521-3.192C100.682 5.93481 103.135 3.07928 105.25 0l1.295 1.07637c.661.56603.788.78873.36 1.19701-2.573 2.58471-5.465 4.86235-8.613 6.78301-.3211.2227-.7493-.18558-.3601-.53819zm29.1961 2.9415c0 .7516-.73 1.132-1.947 1.132h-4.311v14.3177c0 1.6702-1.615 2.6538-2.812 1.6423-1.061-.7725-2.244-1.38-3.504-1.8001-.428-.1577-.37-.5011.068-.5011.827 0 3.173.1207 3.338 0 .061-.0346.109-.0859.139-.1472.029-.0613.039-.1296.027-.1961V12.5917h-9.567c-.593 0-.73-.4083-1.391-1.763h16.982c.593 0 .973-.3155 1.586-.98359.779.66809 1.362 1.01139 1.362 1.61459h.03zm-17.703-8.49039h11.883c.564 0 .973-.31549 1.586-.92791.662.65881 1.295 1.01142 1.295 1.54033 0 .69593-.633 1.14132-1.859 1.14132h-11.455c-.554-.01855-.759-.42683-1.45-1.75374zM136.597 9.34399c2.11-2.81307 3.886-5.8412 5.294-9.028548l1.762 1.011418c.554.31549.525.40828.165 1.01142-.136.21342-.302.47324-.506.75161h5.401c.565 0 .827-.18558 1.392-.75161.691.63098 1.119 1.00214 1.119 1.4197 0 .56603-.525.92791-1.615.92791h-4.769c.781.35562 1.452.8993 1.946 1.57745.896 1.58672-1.187 3.192-2.248 1.10421-.467-.92791-.895-1.94861-1.226-2.68166h-1.226c-1.476 1.85749-3.142 3.5702-4.973 5.11278-.063.06521-.151.10381-.244.10729-.093.00348-.184-.02844-.253-.08873-.068-.0603-.108-.14403-.112-.23278-.004-.08875.03-.17524.093-.24046zm28.368 14.10421c0 .6959-.661.9836-1.751.9836h-11.396v2.7837c0 1.4197-1.295 1.9301-2.754 1.7352v-4.5189h-11.075c-.467 0-.633-.2877-1.158-1.5867h12.242v-1.8559h-8.136c-.467 0-.603-.3433-1.197-1.5774h9.333V17.324h-6.812c-.467 0-.603-.4083-1.1-1.5403h7.912v-1.8651h-11.289c-.496 0-.623-.3155-1.216-1.5496h12.505v-1.8558h-6.686c-.457 0-.622-.4083-1.06-1.54965h7.785V6.03136l1.723.34332c1.368-1.91123 2.501-3.96612 3.377-6.124192l1.79 1.039262c.497.28765.565.44539.166.98358-.166.2227-.399.50107-.701.85367h6.559c.565 0 .828-.25053 1.421-.78872.662.59386 1.158 1.03926 1.158 1.44754 0 .60314-.661.92791-1.683.92791h-4.866c.681.29493 1.27.75187 1.713 1.32691 1.158 1.60528-.974 3.31263-2.151 1.15988-.496-.9279-.857-1.76302-1.256-2.48679h-2.345c-.662.65881-1.392 1.38258-2.19 2.05068.019.06062.019.12496 0 .18558v2.0414h3.64c.273.00401.542-.05162.789-.16262.246-.111.462-.2744.632-.47764l2.18.65882c1.294.38044.467.98358.467 1.61455v1.763h2.482c.632 0 .973-.3433 1.557-.9279.691.631 1.187 1.0022 1.187 1.4754 0 .6681-.623.9836-1.684.9836h-3.542v2.9322c0 1.197-1.46 1.4846-2.647 1.4197v-.9279h-5.07v2.1434h6.617c.497 0 .857-.3155 1.421-.9279.701.6403 1.226 1.0486 1.226 1.4568 0 .696-.661 1.0393-1.722 1.0393h-7.542V22.91h10.393c.594 0 .925-.3155 1.548-.9279.71.6124 1.206.965 1.206 1.4661zM151.818 12.369h5.06v-1.8558h-5.06v1.8558zm0 3.4054h5.06v-1.8558h-5.06v1.8558zM187.144 6.71805c0 .76089-.603 1.11349-1.722 1.11349h-9.898c-.535 0-.661-.3526-1.197-1.67951h9.966c.662 0 .973-.27837 1.625-.92791.827.67737 1.226 1.12277 1.226 1.49393zM185.947 11.2648c0 .7609-.623 1.0393-1.683 1.0393h-7.552c-.594 0-.594-.3155-1.188-1.6424h7.708c.633 0 .973-.2506 1.489-.92794.827.74234 1.226 1.08564 1.226 1.53104zM175.593 15.162h7.571c.603 0 .973-.2876 1.46-.8815.827.6588 1.226 1.0114 1.226 1.4476 0 .668-.662 1.0392-1.723 1.0392h-7.347c-.565 0-.565-.3433-1.187-1.6053z"/><path d="M178.434.927875c-.194-.352605.098-.630978.467-.473233 1.324.490788 2.455 1.359318 3.241 2.486798 1.187 2.05067-.973 4.07351-2.083 1.48465-.465-1.19703-1.008-2.36536-1.625-3.498215zM203.397 27.3269c-1.265.6681-4.204.8537-7.786.7888-6.812-.1207-6.987-.5011-6.987-6.217v-10.439l2.082.4361c.399.0928.565.2506.565.4454h6.724V4.41688h-9.673c-.594 0-.759-.34333-1.353-1.67024h9.499c.341.00062.675-.09161.963-.26585.288-.17424.517-.42325.662-.71773l2.287.78872c1.323.48252.292 1.45682.292 2.11564V14.262c0 1.2991-1.46 1.6146-2.677 1.364v-1.5774h-6.724v8.8337c0 2.5517.097 2.8672 2.618 2.9971 3.542.1856 5.557 0 6.52-.4454.594-.2505.788-.7887 1.022-1.763l.37-1.5125c.011-.0547.042-.104.087-.1394.046-.0354.102-.0548.161-.0548.058 0 .115.0194.16.0548.046.0354.077.0847.088.1394.36 1.6424.526 2.4961 1.187 3.1549.17.1166.307.2718.399.4514.092.1797.135.3782.127.5779-.009.1996-.07.394-.177.5658-.107.1718-.257.3156-.436.4184zM78.1764 41.3569c0-.1485.0973-.1949.253-.1856.5158.0464 1.8393.0928 3.1434.0928h2.5692c1.4987 0 2.5595 0 3.0947-.0928.1557 0 .292 0 .2823.1577-.0779.7609-.146 1.6053-.2044 2.3848-.0089.0342-.0295.0645-.0586.0862-.0291.0217-.065.0335-.102.0335-.0369 0-.0728-.0118-.1019-.0335-.0291-.0217-.0498-.052-.0587-.0862-.2141-1.1878-.6423-1.8002-1.4111-1.8002h-2.0826v6.8387c0 2.459 0 2.459 1.4792 2.5796-.107.3619-.1849.4825-.4087.4825h-4.029c.0584-.3062.1071-.4547.3114-.4825 1.0705-.1485 1.1192-.167 1.1192-2.2548v-7.1356h-2.1702c-.6229 0-1.09.6588-1.4209 1.8001-.0778.2691-.3211.1856-.3211 0 0-.7794.1168-1.6238.1168-2.3847zM90.9544 51.4247c.4574-.0835.5061-.1856.5061-1.7816v-3.4982c-.001-.0557-.0142-.1107-.0388-.1613-.0246-.0506-.0601-.0957-.1041-.1324-.044-.0367-.0956-.0642-.1515-.0808-.0558-.0165-.1147-.0217-.1728-.0152H90.75c-.2043 0-.2822-.1299 0-.2227.691-.2598 1.3917-.5567 1.9464-.798.022-.0122.0473-.0179.0727-.0162.0253.0017.0496.0106.0696.0257.0199.015.0347.0354.0423.0586.0076.0231.0077.0479.0003.0711v1.4661c.4574-.8259.9732-1.5125 1.8296-1.5125.2547-.013.5084.0395.7344.1522.226.1126.4161.2812.5502.4881.1655.3062.0681.7423-.6228 1.132-.1341-.1808-.3065-.3328-.5059-.4463-.1995-.1134-.4216-.1858-.6522-.2125-.5158 0-.798.2041-1.3333.7609v2.5239c0 2.1063 0 2.162.8856 2.2084-.1168.3062-.1265.4083-.3309.4083h-2.7444c.0584-.3155.0779-.3897.2628-.4176zM104.793 51.9629c-.633 0-1.294-.1299-1.255-1.0671-.211.339-.514.6173-.877.8052-.364.1879-.774.2784-1.187.2619-1.187 0-1.9459-.5753-1.9459-1.6981 0-.8165 1.0709-2.4496 4.0289-2.4496v-1.1878c.023-.1631.007-.3291-.047-.4854-.054-.1564-.144-.2992-.264-.4178-.12-.1186-.266-.2099-.428-.2672-.161-.0573-.335-.0791-.507-.0637-.194-.0078-.387.0346-.559.1228-.171.0882-.314.2189-.414.3783-.243.3248-.175.5938-.175 1.1413-.187.1435-.422.2162-.662.2042-.103.0001-.206-.0223-.299-.0656-.093-.0432-.175-.1061-.2384-.184-.0638-.0778-.1082-.1685-.1297-.2652-.0215-.0966-.0196-.1967.0056-.2925.1895-.4883.5385-.9055.9965-1.1896.457-.2842.999-.4202 1.544-.3879 1.761 0 2.686.7516 2.686 1.8558 0 .6496-.059 1.3734-.059 2.6353 0 1.8002-.175 2.2641.769 2.0971.175 0 .195.1392.068.232-.303.2123-.676.3144-1.051.2876zm-1.246-3.7116c-1.946 0-2.52 1.0207-2.52 1.8558 0 .2461.102.4821.285.6561.182.174.43.2718.688.2718.289.0345.583.0029.858-.0923.274-.0952.52-.2512.719-.4552-.039-.6402-.03-1.4289-.03-2.1898v-.0464zM108.88 45.3469c.059-.297.098-.3897.302-.3897h2.832c-.126.3154-.136.3897-.302.3897-.661 0-.661.1392-.389.7423l1.791 4.1478 1.771-4.1478c.282-.6495.126-.7423-.691-.7423.058-.297.107-.3897.311-.3897h2.044c-.107.3154-.185.3897-.341.3897-.155 0-.379.1392-.535.501l-2.598 5.9479c-.097.2227-.351.2135-.701.1949l-2.647-5.9665c-.234-.5567-.292-.6588-.847-.6773zM121.24 48.2513c0 1.6053.915 2.8765 2.365 2.8765.721.0114 1.419-.2448 1.946-.7145.156-.1206.263 0 .185.1485-.255.4418-.634.807-1.095 1.0546-.461.2475-.985.3675-1.513.3465-1.946 0-3.387-1.2155-3.387-3.5446 0-1.7723 1.479-3.6188 3.183-3.6188.405-.0423.815.0034 1.199.1335.384.1302.733.3415 1.019.6181.512.5582.799 1.2721.808 2.0135 0 .3619 0 .5104-.36.5197-1.849.102-3.27.0927-4.35.167zm3.192-.7516c0-1.1785-.516-2.1064-1.46-2.1064s-1.752 1.0393-1.752 2.3476l3.212-.2412zM129.989 41.7559c.691-.2691 1.45-.5104 2.073-.696.165 0 .195 0 .175.1392-.087.6867-.087 2.8394-.087 4.2777v3.7116c0 2.1064 0 2.162.895 2.2084-.097.3062-.127.4083-.331.4083h-2.92c.059-.3155.078-.3804.263-.4083.555-.0742.652-.167.652-1.7908v-7.08c0-.2969-.097-.5567-.486-.5567h-.253c-.156 0-.224-.1299.019-.2134zM147.068 41.264l6.287 7.7388v-4.9922c0-2.0135-.058-2.2177-.973-2.264-.311 0-.321-.1207-.243-.4826h3.289c-.107.4176-.107.4547-.311.4826-.886.1299-.973.2876-.973 1.9393v8.1285c0 .2319-.438.1763-.516.0742l-6.988-8.7316v5.6973c0 2.2363 0 2.3662 1.285 2.5054-.127.3619-.146.4825-.35.4825h-2.978c.058-.3155.077-.4361.301-.4825.876-.167.915-.2691.915-2.0321v-6.7088c0-.6032-.477-.798-1.109-.8722-.234 0-.215-.1856-.176-.4826h2.54zM158.883 48.3812c-.018-.4626.061-.9239.234-1.3566.172-.4326.434-.8278.77-1.162.336-.3341.739-.6004 1.185-.7831.446-.1826.926-.2779 1.412-.28.48-.0018.955.0919 1.395.2752.441.1832.836.4519 1.161.7889.325.3371.573.735.728 1.1685.154.4335.213.8929.171 1.3491.018.4618-.061.9223-.233 1.3544-.172.4321-.433.8268-.768 1.1608-.335.3341-.737.6006-1.182.7838-.445.1832-.924.2793-1.408.2827-2.287 0-3.465-1.6517-3.465-3.5817zm5.528.2134c0-1.6053-.789-3.2291-2.141-3.2291-1.353 0-1.879 1.2063-1.879 2.7837 0 1.5775.769 3.2106 2.044 3.2106 1.518.0278 1.976-1.0207 1.976-2.7652zM174.435 51.2577c-.239.2322-.523.4166-.838.5425-.314.1259-.651.1906-.992.1905-1.09 0-1.761-.5381-1.761-2.0599v-4.2034h-1.188v-.1949c.017-.0533.048-.1013.091-.1388.043-.0376.096-.0634.153-.0746 1.236-.167 1.508-1.1413 1.81-2.1435 0-.1113.515-.0649.515 0v1.7538h2.21c-.078.501-.127.7701-.506.7701h-1.674v3.8323c0 1.4661.486 1.6981 1.09 1.6981.335.0027.667-.0638.973-.1949.136 0 .243.0835.117.2227zM179.524 48.2512c0 1.6053.915 2.8765 2.365 2.8765.722.0134 1.421-.2431 1.947-.7144.155-.1207.272 0 .194.1484-.256.4404-.636.8045-1.096 1.0518-.461.2473-.984.3682-1.512.3494-1.946 0-3.396-1.2156-3.396-3.5446 0-1.7723 1.489-3.6189 3.192-3.6189.405-.0402.814.0064 1.198.1364.384.1301.733.3403 1.021.6152.508.5596.791 1.2733.798 2.0136 0 .3619 0 .5103-.36.5196-1.84.1021-3.261.0928-4.351.167zm3.202-.7516c0-1.1784-.525-2.1063-1.469-2.1063-.944 0-1.742 1.0392-1.742 2.3476l3.211-.2413zM85.0275 16.1642l-.7785.0835c-.2963.0401-.5735.1628-.7969.3526-.2233.1899-.3829.4385-.4585.7145l-.4964 2.0971c-.0211.0691-.0251.142-.0116.2129.0135.0708.0442.1377.0895.1953.0555.0493.122.0857.1946.1067.0725.0209.1491.0257.2239.014l2.2383-.2227c.2967-.0419.5742-.165.7988-.3545.2246-.1894.3866-.437.4664-.7126l.1654-.7331c.0137-.0584.0395-.1136.0761-.1623.0365-.0487.083-.0898.1366-.121.0535-.0312.1132-.0518.1753-.0605.0621-.0087.1254-.0054.1862.0098l.7201.334.8662-.733-2.7736-2.9786-.8661.7423.253.7145c.0111.0589.009.1194-.006.1776-.015.0581-.0427.1125-.0813.1598-.0385.0472-.0871.0862-.1425.1144-.0553.0282-.1163.045-.179.0493z"/></g><defs><clipPath id="clip0_1201_480"><path fill="#fff" d="M0 0h204v52H0z"/></clipPath></defs></svg>